<?xml version="1.0" encoding="utf-8"?>
<!-- Generator: Adobe Illustrator 21.0.0, SVG Export Plug-In . SVG Version: 6.00 Build 0)  -->
<svg version="1.1" id="Слой_1" xmlns="http://www.w3.org/2000/svg" xmlns:xlink="http://www.w3.org/1999/xlink" x="0px" y="0px"
	 viewBox="0 0 1366 450" style="enable-background:new 0 0 1366 450;" xml:space="preserve">
<style type="text/css">
	.st0{fill:#A57FEA;stroke:#A57FEA;stroke-miterlimit:10;}
	.st1{fill:#FFFFFF;}
	.st2{fill:#666666;}
	.st3{fill:#C8CACC;}
	.st4{fill:#FF816F;}
	.st5{fill:#807D7D;}
	.st6{fill:#FFBA1B;}
	.st7{fill:#F5A209;}
	.st8{fill:#F0B97D;}
	.st9{fill:#FED198;}
	.st10{fill:#20D0C2;}
	.st11{fill:#DFE1E3;}
	.st12{opacity:0.6;stroke:#000000;stroke-miterlimit:10;}
</style>
<rect x="-0.5" y="-0.5" class="st0" width="1367" height="451"/>
<g>
	<path class="st1" d="M529.7,281.1c1.5,0,3,0.2,4.3,0.7c3.2-5.4,9.1-9,15.8-9c10.1,0,18.2,8.1,18.4,18.1c0.2,0,0.4,0,0.7,0
		c5.2,0,9.4,4.2,9.4,9.4c0,5.2-4.2,9.4-9.4,9.4c-3.2,0-6-1.6-7.7-4c-3.1,2.5-7.1,4-11.4,4c-4,0-7.8-1.3-10.8-3.5
		c-2.5,2.2-5.8,3.5-9.4,3.5c-7.9,0-14.3-6.4-14.3-14.3C515.4,287.5,521.8,281.1,529.7,281.1L529.7,281.1z"/>
	<path class="st1" d="M828,206.2c-2,0-3.9,0.3-5.8,0.9c-4.3-7.2-12.1-12-21.1-12c-13.4,0-64.3,10.7-64.5,24.1c-0.3,0-0.6,0-0.9,0
		c-6.9,0-12.5,5.6-12.5,12.5c0,6.9,5.6,12.5,12.5,12.5c4.2,0,47.9-2.1,50.2-5.3c4.2,3.3,9.5,5.3,15.2,5.3c5.4,0,10.3-1.7,14.4-4.7
		c3.3,2.9,7.7,4.7,12.5,4.7c10.5,0,19-8.5,19-19C847,214.7,838.5,206.2,828,206.2L828,206.2z"/>
</g>
<path class="st2" d="M633.8,65.2l17.4,37.4c-2.2,25.4-30.3,55.1-64.4,68.5c-32.5,12.8-70.7,10.4-87.3-5.5l-15.4-37.3l81.6-6.5
	L633.8,65.2L633.8,65.2z"/>
<path class="st3" d="M434.5,134.2l-0.4-1l98.5-92.5l135.1-2.6l0.4,1L571,134.9L434.5,134.2L434.5,134.2z"/>
<path class="st4" d="M489.6,238.3l-6.6,42.4c-0.1,0.7,2.2,1.6,3.3,0.2c1.5,1.7,3.4,1,4-0.2c0.7,1.2,2.5,1.9,3.7,0.1
	c1.1,1.4,3.6,0.4,3.4-0.7l-6.6-41.8C490.6,237.6,489.7,237.7,489.6,238.3L489.6,238.3z"/>
<path class="st5" d="M434.1,133.2L532,39.3l135.7-1.2L569.8,132L434.1,133.2L434.1,133.2z"/>
<path class="st1" d="M551.5,84.9c0.6-0.5,1.5-0.4,2,0.2c0.5,0.6,0.4,1.5-0.2,2l-65.9,53.2l4.1,98c0.3,0.7-0.1,1.6-0.8,1.9
	c-0.7,0.3-1.6-0.1-1.9-0.8l-4.5-99c-0.2-0.6-0.1-1.3,0.4-1.7L551.5,84.9L551.5,84.9z"/>
<path class="st6" d="M490.2,231.6c3.6,0,6.6,2.9,6.6,6.6c0,3.6-2.9,6.6-6.6,6.6c-3.6,0-6.6-2.9-6.6-6.6
	C483.6,234.6,486.5,231.6,490.2,231.6z"/>
<path class="st7" d="M495.5,236.5c0,2.7-1.7,5.1-4.2,6c-0.7,0.2-1.4,0.4-2.1,0.4c0,0-0.1,0-0.1,0c-2.2,0-4.1-1.2-5.2-2.8
	c0.7,2.3,2.5,4.1,4.9,4.6c0.5,0.1,0.9,0.2,1.4,0.2c0.5,0,1-0.1,1.5-0.2c2.9-0.7,5.1-3.3,5.1-6.4c0-1.9-0.8-3.6-2-4.8
	C495.2,234.3,495.5,235.4,495.5,236.5L495.5,236.5z"/>
<path class="st8" d="M599.3,224.4l33.1-20.7c4.6,0.1,6,7.7,2.6,12l-29.3,19L599.3,224.4L599.3,224.4z"/>
<path class="st9" d="M610,190.3l-24.5,38.2l16.3,51.7l8.7-32.5l-6.9-21.3l15.4-27.5C622.2,191.8,614.6,184.4,610,190.3z"/>
<path class="st8" d="M665.7,253.5l-2.8,17.7l-1.1,7l-28.3-10l33.6,50.1l8.4,68.3c1.2-1-0.8-62.4,0.2-63.9c3.8-5.6,6.5-15.1,7.8-28.9
	l-0.2-23.7l-0.2-12.6l2.9-13.5C678.8,240,668.4,244,665.7,253.5L665.7,253.5z"/>
<g>
	<path class="st9" d="M601.2,283.9l9.9-47.4l32.4-13.1c4,2.2,5.4,4.4,2.2,11.1l-16.4,8.5l4.2,25.2c29,15.6,38.3,34,36.5,56.9
		c1,20.1,4.5,41.4,5.5,61.5l-48.7,1.3l10.9-52.5L601.2,283.9z"/>
	<path class="st9" d="M586.4,185l0.4,41.4l11-17.1l-1.3-21.6C596.5,187.7,592.8,179.1,586.4,185z"/>
</g>
<path class="st10" d="M610.6,374.7h86l1.7,67.9c-17.6,4.8-36.1,7.4-55.3,7.4c-11.7,0-23.2-1-34.3-2.8L610.6,374.7z"/>
<g>
	<path class="st1" d="M619.4,374.7h68.4v-16.5h-68.4V374.7z"/>
	<path class="st1" d="M586.8,191.6l-0.2-6.4c0,0,2.9-0.7,3.2,0.8c0.2,1.5,0.2,5.6,0.2,5.6L586.8,191.6z"/>
	<path class="st1" d="M607.8,194.6l3.8-5.2c0,0,2.7,1.2,2,2.5c-0.7,1.3-3.2,4.5-3.2,4.5L607.8,194.6L607.8,194.6z"/>
	<path class="st1" d="M637.6,226.7l5.8-2.7c0,0,1.8,2.4,0.6,3.2c-1.2,0.8-5,2.4-5,2.4L637.6,226.7z"/>
	<path class="st1" d="M637.8,168.7l166.4-80.2c15.1-4.8,26.8,25.5,17.4,30.8l-163,80.8c-7,4.6-17.2-6-20.6-17.9
		c-1.8-6.3,0-6.5,6.6-11L637.8,168.7z"/>
</g>
<path class="st6" d="M720.8,116c10.5-0.8,23.3,21.8,19.8,30.1l-17,11.2c0.8-12.1-10.8-29.4-21.5-29.4L720.8,116L720.8,116z"/>
<path class="st7" d="M804.7,157.7l-64.1-11.5l-17,11.2l59.6,14.5l4.7-12.3L804.7,157.7L804.7,157.7z"/>
<path class="st11" d="M643.8,171.7l0.8-0.6c5.9-0.1,20.3,17.8,10.5,24.7c-7,4.9-14.3-10.9-15.3-16.5c2.8-3.1,8.6,6,7.5,6.5l-2.2,1
	c0,0,1,4.3,3.3,4.1l8.2-4.8C656.6,186,653,173.4,643.8,171.7L643.8,171.7z"/>
<path class="st1" d="M1052.5,83.3c0,1.1,0.9,2,2,2h20.1c1.1,0,2-0.9,2-2c0-1.1-0.9-2-2-2h-20.1C1053.4,81.3,1052.5,82.2,1052.5,83.3
	z"/>
<path class="st1" d="M1064.6,95.4c0,1.1,0.9,2,2,2h12.1c1.1,0,2-0.9,2-2s-0.9-2-2-2h-12.1C1065.5,93.4,1064.6,94.3,1064.6,95.4z"/>
<path class="st1" d="M1062.6,73.3c1.1,0,2-0.9,2-2s-0.9-2-2-2h-4c-1.1,0-2,0.9-2,2s0.9,2,2,2H1062.6z"/>
<path class="st1" d="M1038.4,93.4c-1.1,0-2,0.9-2,2s0.9,2,2,2h20.1c1.1,0,2-0.9,2-2s-0.9-2-2-2H1038.4z"/>
<path class="st1" d="M1048.5,149.8h-38.3c-3.3,0-6-2.7-6-6V51.1c0-1.1-0.9-2-2-2c-5.6,0-10.1,4.5-10.1,10.1c0,1.1,0.9,2,2,2
	c1.1,0,2-0.9,2-2c0-2.6,1.7-4.9,4-5.7v90.3c0,5.6,4.5,10.1,10.1,10.1h38.3c1.1,0,2-0.9,2-2S1049.6,149.8,1048.5,149.8z"/>
<path class="st1" d="M1018.3,85.3h28.2c1.1,0,2-0.9,2-2c0-1.1-0.9-2-2-2h-28.2c-1.1,0-2,0.9-2,2
	C1016.2,84.4,1017.1,85.3,1018.3,85.3z"/>
<path class="st1" d="M1018.3,73.3h8.1c1.1,0,2-0.9,2-2s-0.9-2-2-2h-8.1c-1.1,0-2,0.9-2,2S1017.1,73.3,1018.3,73.3z"/>
<path class="st1" d="M1050.5,69.2h-16.1c-1.1,0-2,0.9-2,2s0.9,2,2,2h16.1c1.1,0,2-0.9,2-2C1052.5,70.1,1051.6,69.2,1050.5,69.2z"/>
<path class="st1" d="M1078.7,41.1h-76.6c-10,0-18.1,8.1-18.1,18.1v0v0v0v0c0,6.4,3.5,12.4,9.1,15.6c1,0.6,2.2,0.2,2.8-0.7
	c0.6-1,0.2-2.2-0.7-2.8c-4.3-2.5-7-7.2-7.1-12.2c0-7.8,6.3-14.1,14.1-14.1h76.6c7.8,0,14.1,6.3,14.1,14.1v84.6c0,1-0.3,2-0.8,3
	c-0.6,1-0.2,2.2,0.7,2.8c0.3,0.2,0.7,0.3,1,0.3c0.7,0,1.4-0.4,1.7-1c0.9-1.5,1.4-3.3,1.4-5V59.2
	C1096.8,49.2,1088.7,41.1,1078.7,41.1z"/>
<path class="st1" d="M1084.7,133.7c0-6.7-5.4-12.1-12.1-12.1c-6.7,0-12.1,5.4-12.1,12.1c0,6.7,5.4,12.1,12.1,12.1
	C1079.3,145.8,1084.7,140.4,1084.7,133.7z M1072.7,141.8c-4.4,0-8.1-3.6-8.1-8.1s3.6-8.1,8.1-8.1c4.4,0,8.1,3.6,8.1,8.1
	S1077.1,141.8,1072.7,141.8z"/>
<path class="st1" d="M1063.8,160.9l6-10.3c0.6-1,0.2-2.2-0.7-2.8c-1-0.6-2.2-0.2-2.8,0.7l-4.3,7.5l-0.7-1c-0.3-0.5-0.9-0.9-1.6-0.9
	l-1.2-0.1l4.4-7.6c0.6-1,0.2-2.2-0.7-2.8c-1-0.6-2.2-0.2-2.8,0.7l-6,10.5c-0.3,0.6-0.4,1.3,0,2s1,1,1.7,1.1l3.5,0.2l1.9,2.9"/>
<path class="st1" d="M1085,161l1.9-2.9l3.5-0.2c0.7,0,1.3-0.4,1.7-1.1c0.3-0.6,0.3-1.4,0-2l-6-10.4c-0.6-1-1.8-1.3-2.8-0.7
	c-1,0.6-1.3,1.8-0.7,2.8l4.4,7.5l-1.2,0.1c-0.6,0-1.2,0.4-1.6,0.9l-0.7,1l-4.3-7.5c-0.6-1-1.8-1.3-2.8-0.7c-1,0.6-1.3,1.8-0.7,2.8
	l5.9,10.3"/>
<path class="st1" d="M1018.3,97.4h12.1c1.1,0,2-0.9,2-2s-0.9-2-2-2h-12.1c-1.1,0-2,0.9-2,2S1017.1,97.4,1018.3,97.4z"/>
<path class="st1" d="M1018.3,109.5h24.2c1.1,0,2-0.9,2-2c0-1.1-0.9-2-2-2h-24.2c-1.1,0-2,0.9-2,2
	C1016.2,108.6,1017.1,109.5,1018.3,109.5z"/>
<path class="st1" d="M1018.5,134.6c0.5,1,1.7,1.4,2.7,0.9c1-0.5,1.4-1.7,0.9-2.7c-2-4-2.4-7.6-1.2-9.6c0.7-1.1,1.8-1.6,3.4-1.6
	c1,0,1.3,0.3,1.5,0.7c1.5,2.2,0.1,8.8-1.4,12.7c-0.3,0.9,0,1.9,0.8,2.4c0.8,0.5,1.8,0.4,2.5-0.3c0.9-0.9,1.8-1.7,2.6-2.4v1
	c0,0.8,0.5,1.5,1.2,1.9c0.8,0.3,1.6,0.1,2.2-0.4c0.9-0.9,2-1.8,2.9-2.5c0,0.1,0,0.1-0.1,0.1c-0.3,0.6-0.3,1.4,0.1,2
	c0.4,0.6,1,1,1.7,1h8.1c1.1,0,2-0.9,2-2c0-1.1-0.9-2-2-2h-5.2c0.2-1,0.1-1.9-0.4-2.7c-0.5-0.8-1.4-1.3-2.5-1.3c-1.2,0-2.7,0.8-4,1.7
	c-0.1-0.9-0.6-1.6-1.4-1.9c-0.5-0.2-1.2-0.5-2.9,0.5c0.7-3.5,0.9-7.5-0.9-10c-0.8-1.1-2.2-2.4-4.9-2.4c-3,0-5.5,1.3-6.9,3.5
	C1015.4,124.4,1015.8,129.3,1018.5,134.6z"/>
<path class="st1" d="M1072.7,107.5c0-1.1-0.9-2-2-2h-20.1c-1.1,0-2,0.9-2,2c0,1.1,0.9,2,2,2h20.1
	C1071.8,109.5,1072.7,108.6,1072.7,107.5z"/>
<g>
	<g>
		<g>
			<path class="st1" d="M321,369.1c0.7,0.2,1.5-0.2,1.7-0.9c4.1-14,17.1-23.7,31.6-23.7c2.3,0,4.6,0.2,6.9,0.7c0,2,0.8,3.3,1.4,4.2
				c0.2,0.2,0.4,0.6,0.4,0.6c0,4.9-1,5.7-1,5.7c-2.2,0-5.9,2-7.2,4.5c-0.8,1.6-0.8,3.2,0.2,4.7c0.7,1,1.2,2.1,1.8,3.2
				c1.2,2.3,2.5,4.8,4.5,4.8c0.4,0,0.9-0.1,1.4-0.4c1.6-0.8,2.7-3.1,3.9-5.3c0.5-1,1.2-2.4,1.6-2.8c1.4,0.2,2.1,1.4,3,3.4
				c0.7,1.5,1.4,3,2.8,3.7c2.3,1.2,9.9-0.1,14.2-1.8c0.6-0.3,1-1,0.8-1.6c-2.9-10.6-10.7-19.5-20.9-23.7c-0.7-0.3-1.5,0-1.8,0.7
				c-0.3,0.7,0,1.5,0.8,1.8c9.1,3.7,16.1,11.4,19,20.7c-4.3,1.5-9.7,2-10.7,1.5c-0.5-0.3-1-1.4-1.5-2.4c-1-2.1-2.3-4.9-5.6-5.1
				c-1.7-0.1-2.7,1.9-4,4.4c-0.7,1.5-1.8,3.7-2.7,4.1c-0.5-0.1-1.5-2.1-2.1-3.2c-0.6-1.1-1.2-2.3-1.9-3.4c-0.4-0.6-0.4-1.2-0.1-1.9
				c0.9-1.8,3.8-3.1,4.8-3.1c2.5,0,3.7-2.8,3.7-8.5c0-0.8-0.4-1.4-0.8-2.1c-0.6-0.9-1.2-1.9-0.8-3.5c0.2-0.7-0.3-1.4-1-1.6
				c-2.8-0.7-5.8-1.1-8.7-1.1c-15.8,0-29.8,10.6-34.2,25.7C319.9,368.1,320.3,368.9,321,369.1z"/>
			<path class="st1" d="M370.8,378.1c-0.4,0.1-0.9,0.3-1.1,0.3c-1.9,0-3.1,1.5-4,2.5c-0.3,0.4-0.9,1.1-1.3,1.2
				c-0.6-0.3-1.3-0.5-1.9-0.5c-1.6,0-3,1-3.3,2.3c-0.2,0.9,0.1,2.2,1.7,3c2.2,1.1,4.5,2.3,5.6,3.3c0.7,0.7,1.9,1.1,3.3,1.1
				c2.2,0,5-1,6-4c0.4-1.2,1.3-2.1,2.2-2.9c1-1,2-1.9,2-3.3c0-0.8-0.3-1.6-1.1-2.3c-1-1-2.3-1.5-3.9-1.5
				C373.5,377.3,371.9,377.8,370.8,378.1z M377.3,381c-0.1,0.3-0.7,0.9-1.2,1.4c-1,1-2.3,2.2-2.9,4c-0.7,2-3,2.1-3.4,2.1
				c-0.8,0-1.3-0.2-1.4-0.3c-1.3-1.3-3.7-2.5-6.3-3.8c0,0,0,0,0,0c0.3-0.1,0.7-0.1,1.2,0.1c0.4,0.2,0.9,0.3,1.4,0.3
				c1.5,0,2.5-1.2,3.3-2.2c0.6-0.8,1.3-1.5,1.9-1.5c0.5,0,1.1-0.2,1.8-0.4c1-0.3,2.3-0.7,3.5-0.7c0.9,0,1.5,0.2,2,0.6
				C377.2,380.9,377.3,381,377.3,381z"/>
			<path class="st1" d="M389.7,372.4c-0.1-0.8-0.8-1.3-1.5-1.2c-0.8,0.1-1.3,0.8-1.2,1.5c0.2,1.5,0.3,3,0.3,4.6
				c0,18-14.6,32.7-32.5,32.9c-4.9-3.1-9.4-6.9-7.4-11.7c3.7-8.5,0.3-11.7-1.2-13.1l-0.3-0.3c-0.4-0.4-0.9-0.7-1.3-0.9
				c-1-0.6-1.3-0.8-0.7-2.4c0.4-1.1,0.8-1.6,1.4-2.2c1.3-1.3,2.2-2.7,2.2-6.6c0-2.3-1.1-4.1-3.1-4.9c-2.3-1-5.3-0.6-6.9,0.8
				c-1,0.9-1.3,2.1-0.9,3.4c1,2.9-1.3,7.2-5.4,10.3c-1.1,0.8-1.4,0.4-1.6,0.2c-1.2-1.4-1.1-5.4-0.1-6.4c0.7-0.7,0.9-1.5,0.5-2.3
				c-1.1-2.5-8.2-2.3-9.6-2.3c-0.7,0-1.2,0.5-1.3,1.2c-0.2,1.4-0.2,2.7-0.2,4.2c0,16.4,11.1,30.7,27.1,34.6c0.7,0.2,1.5-0.3,1.7-1
				c0.2-0.7-0.3-1.5-1-1.7c-14.7-3.6-25-16.8-25-32c0-1,0-1.8,0.1-2.6c2.3,0,4.3,0.3,5.3,0.6c-1.6,2.5-1.4,7.3,0.5,9.5
				c1.4,1.6,3.4,1.7,5.3,0.2c5.3-4,7.8-9.2,6.4-13.4c0-0.1-0.1-0.3,0.2-0.5c0.7-0.7,2.6-0.9,3.9-0.3c1,0.4,1.5,1.2,1.5,2.4
				c0,3.1-0.6,3.8-1.5,4.7c-0.6,0.7-1.4,1.5-2,3.2c-1.2,3.7,0.7,4.9,1.9,5.6c0.3,0.2,0.6,0.4,0.8,0.5c0.1,0.1,0.2,0.2,0.3,0.3
				c1.2,1.1,3.5,3.2,0.6,10c-3.3,7.7,5.2,13,8.8,15.3c0.2,0.1,0.5,0.2,0.7,0.2c19.7,0,35.7-16,35.7-35.7
				C390,375.7,389.9,374.1,389.7,372.4z"/>
			<path class="st1" d="M377.3,408.2c-6.7,5-14.6,7.6-22.9,7.6c-21.2,0-38.4-17.2-38.4-38.4c0-0.8-0.6-1.4-1.4-1.4
				c-0.8,0-1.4,0.6-1.4,1.4c0,22.2,17.7,40.4,39.8,41.1v4.1c0,0.8,0.6,1.4,1.4,1.4c0.8,0,1.4-0.6,1.4-1.4v-4.2
				c8.4-0.3,16.4-3,23.2-8.1c0.6-0.5,0.7-1.3,0.3-1.9C378.7,407.9,377.9,407.7,377.3,408.2z"/>
			<path class="st1" d="M355.4,397.3c-1.7,0-3.7,2-4.5,3.7c-0.6,1.4-0.4,2.7,0.5,3.5c0.8,0.8,2,1.3,3.3,1.3s2.5-0.5,3.3-1.3
				c0.9-0.9,1.1-2.2,0.6-3.8c-0.3-1-1-2.1-1.8-2.9C356.5,397.5,356,397.3,355.4,397.3z M356.1,402.6c-0.6,0.6-2.2,0.6-2.8,0
				c0-0.1,0-0.4,0.3-1c0.5-0.8,1.1-1.3,1.5-1.5c0.4,0.5,0.7,1,0.9,1.6C356.3,402.1,356.3,402.5,356.1,402.6z"/>
		</g>
	</g>
</g>
<g>
	<g>
		<g>
			<path class="st1" d="M925.1,376c-1,0-1.8,0.8-1.8,1.8v5.3c0,0,0,0,0,0h-12.4c-0.8,0-1.5,0.5-1.8,1.2c-0.4,1.2,0.5,2.4,1.7,2.4
				h17.8c6.9,0,12.5,5.6,12.5,12.4c0,1,0.8,1.9,1.8,1.9c1,0,1.8-0.8,1.8-1.8c0-8.9-7.2-16.1-16.1-16.1h-1.8c0,0,0,0,0,0v-3.6
				c0,0,0,0,0,0h1.8c1,0,1.8-0.8,1.8-1.8v-10.7c0-1-0.8-1.8-1.8-1.8h-28.5c-1,0-1.8,0.8-1.8,1.8v10.7c0,1,0.8,1.8,1.8,1.8h1.8
				c0,0,0,0,0,0v3.6c0,0,0,0,0,0h-1.8c-8.9,0-16.1,7.2-16.1,16.1v17.8c0,4.9,4,8.9,8.9,8.9h42.8c4.9,0,8.9-4,8.9-8.9v-10.7
				c0-1-0.8-1.8-1.8-1.8h-49.9c-0.8,0-1.5,0.5-1.8,1.2c-0.4,1.2,0.5,2.4,1.7,2.4h48.2c0,0,0,0,0,0v8.9c0,3-2.4,5.4-5.4,5.4H893
				c-3,0-5.4-2.4-5.4-5.4v-17.8c0-6.9,5.6-12.5,12.5-12.5h3.6c1,0,1.8-0.8,1.8-1.8v-5.3c0,0,0,0,0,0h12.4c0.8,0,1.5-0.5,1.8-1.2
				c0.4-1.2-0.5-2.4-1.7-2.4h-16.1c0,0,0,0,0,0v-7.1c0,0,0,0,0,0h25c0,0,0,0,0,0v7.1c0,0,0,0,0,0L925.1,376L925.1,376z"/>
			<path class="st1" d="M984,360v-24.5c0-8.2-6-15.5-14.2-16.4c-9.7-1.1-17.9,6.5-17.9,16v7.1c0,0.5,0.2,0.9,0.5,1.3l2.3,2.3
				c0,0,0,0,0,0l-2.3,2.3c-0.3,0.3-0.5,0.8-0.5,1.3v46.4c0,0.5,0.2,0.9,0.5,1.3l7.1,7.1c0.6,0.6,1.4,0.8,2.1,0.4
				c1.1-0.6,1.3-2,0.5-2.9l-6.6-6.6c0,0,0,0,0,0v-16.4c0,0,0,0,0,0l10.7,10.7c0,0,0,0,0,0v34.9c0,0.8,0.5,1.5,1.2,1.8
				c1.2,0.4,2.4-0.5,2.4-1.7v-34.9c0,0,0,0,0,0l10.7-10.7c0,0,0,0,0,0v16.4c0,0,0,0,0,0l-6.5,6.5c-0.6,0.6-0.8,1.6-0.3,2.3
				c0.4,0.6,0.9,0.8,1.5,0.8c0.5,0,0.9-0.2,1.3-0.5l7.1-7.1c0.3-0.3,0.5-0.8,0.5-1.3v-28.5c0-0.5-0.2-0.9-0.5-1.3l-2.3-2.3
				c0,0,0,0,0,0l2.3-2.3C983.8,360.9,984,360.4,984,360z M966.1,384.2l-10.7-10.7c0,0,0,0,0,0v-16.4c0,0,0,0,0,0l10.7,10.7
				c0,0,0,0,0,0L966.1,384.2C966.2,384.2,966.1,384.2,966.1,384.2z M967.4,326.2c-0.7,0.2-1.2,1-1.2,1.8v34.9c0,0,0,0,0,0
				l-10.7-10.7c0,0,0,0,0,0V350c0,0,0,0,0,0l3-3c0.3-0.3,0.5-0.8,0.5-1.3c0-0.5-0.2-0.9-0.5-1.3l-3-3c0,0,0,0,0,0v-6
				c0-6.4,4.7-12.1,11.1-12.8c7.3-0.8,13.5,4.7,13.9,11.7c0,0,0,0,0,0l-10.7,10.7c0,0,0,0,0,0v-17.1
				C969.7,326.7,968.6,325.8,967.4,326.2z M980.4,359.2l-3,3c-0.3,0.3-0.5,0.8-0.5,1.3c0,0.5,0.2,0.9,0.5,1.3l3,3c0,0,0,0,0,0v5.7
				c0,0,0,0,0,0l-10.7,10.7c0,0,0,0,0,0V350c0,0,0,0,0,0l10.7-10.7c0,0,0,0,0,0L980.4,359.2L980.4,359.2z"/>
		</g>
	</g>
</g>
<path class="st1" d="M168.5,90c2.4,0,4.4-0.9,5.6-1.6c1.2,0.7,3.3,1.6,5.6,1.6c3.5,0,7.4-2,9.1-4.6c0.2-0.3,4.1-6.2,4.1-16.1
	c0-7.3-5.9-13.2-13.2-13.2c-2.1,0-4.1,0.8-5.6,1.6c-1.6-0.8-3.5-1.6-5.6-1.6c-7.3,0-13.2,5.9-13.2,13.2c0,11.2,3.5,15.5,4.2,16.3
	C161.2,87.7,164.7,90,168.5,90z M168.5,59.8c1.7,0,3.4,0.9,4.7,1.6c0.6,0.3,1.3,0.3,1.9,0c1.3-0.8,3-1.6,4.7-1.6
	c5.2,0,9.4,4.2,9.4,9.4c0,8.7-3.4,14-3.5,14c-0.9,1.4-3.5,2.9-5.9,2.9c-2.4,0-4.5-1.5-4.5-1.5c-0.3-0.2-0.7-0.4-1.1-0.4
	c-0.4,0-0.8,0.1-1.1,0.4c0,0-2.1,1.5-4.5,1.5c-2.4,0-4.9-1.6-6-3c0,0-0.1-0.1-0.1-0.2c0,0-3.2-3.5-3.2-13.7
	C159.1,64.1,163.3,59.8,168.5,59.8z"/>
<path class="st1" d="M172.5,53.3c0.4,0.6,1,0.9,1.6,0.9c0.3,0,0.7-0.1,1-0.3c0.9-0.5,1.2-1.7,0.6-2.6l-5.6-9.4
	c-0.5-0.9-1.7-1.2-2.6-0.6c-0.9,0.5-1.2,1.7-0.6,2.6L172.5,53.3z"/>
<path class="st1" d="M178.4,53c0.1,0,1.3,0.4,2.9,0.4h0c2.3,0,4.2-0.8,5.7-2.2c3.4-3.4,1.9-8.4,1.8-8.6c-0.2-0.6-0.6-1-1.2-1.2
	c-0.1,0-1.3-0.4-2.9-0.4c-2.3,0-4.2,0.8-5.7,2.2c-3.4,3.4-1.9,8.4-1.8,8.6C177.4,52.4,177.9,52.8,178.4,53z M181.7,45.9
	c0.7-0.7,1.7-1.1,3-1.1c0.3,0,0.5,0,0.7,0c0.1,1,0.1,2.6-1.1,3.7c-0.7,0.7-1.7,1.1-3,1.1c-0.3,0-0.5,0-0.7,0
	C180.5,48.6,180.5,47,181.7,45.9z"/>
<path class="st1" d="M215.6,154c3.1,0,5.6-2.5,5.6-5.6v-13.2c0-2.4-1.9-3.8-3.8-3.8v-15.1h3.8c1.8,0,3.8-1.3,3.8-3.8V99.4
	c0-3.1-2.5-5.6-5.7-5.6H129c-3.1,0-5.6,2.5-5.6,5.6v7.5c0,1,0.8,1.9,1.9,1.9s1.9-0.8,1.9-1.9v-7.5c0-1,0.8-1.9,1.9-1.9h5.6v9.4
	c0,1,0.8,1.9,1.9,1.9s1.9-0.8,1.9-1.9v-9.4h49v9.4c0,1,0.8,1.9,1.9,1.9s1.9-0.8,1.9-1.9v-9.4h18.8v9.4c0,1,0.8,1.9,1.9,1.9
	s1.9-0.8,1.9-1.9v-9.4h5.6c1,0,1.9,0.8,1.9,1.9v13.2h-5.6c-1,0-1.9,0.8-1.9,1.9v16.9h-1.9c-1,0-1.9,0.8-1.9,1.9s0.8,1.9,1.9,1.9h5.6
	v13.2c0,1-0.8,1.9-1.9,1.9h-58.4v-9.4c0-1-0.8-1.9-1.9-1.9s-1.9,0.8-1.9,1.9v9.4h-3.8v-9.4c0-1-0.8-1.9-1.9-1.9s-1.9,0.8-1.9,1.9
	v9.4h-3.8v-9.4c0-1-0.8-1.9-1.9-1.9c-1,0-1.9,0.8-1.9,1.9v9.4h-16.9c-1,0-1.9-0.8-1.9-1.9v-7.5c0-1-0.8-1.9-1.9-1.9
	s-1.9,0.8-1.9,1.9v7.5c0,3.1,2.5,5.6,5.6,5.6"/>
<path class="st1" d="M185.5,135.2c1,0,1.9-0.8,1.9-1.9c0-1-0.8-1.9-1.9-1.9h-20.7v-15.1h26.4v28.2c0,0.7,0.4,1.3,1,1.7
	c0.6,0.3,1.4,0.3,1.9-0.1l4.6-3.1l4.6,3.1c0.3,0.2,0.7,0.3,1,0.3c0.3,0,0.6-0.1,0.9-0.2c0.6-0.3,1-1,1-1.7v-28.2h1.9
	c1,0,1.9-0.8,1.9-1.9c0-1-0.8-1.9-1.9-1.9h-90.4c-3.2,0-5.6,2.5-5.6,5.6v11.3c0,3.1,2.5,5.6,5.6,5.6L185.5,135.2L185.5,135.2z
	 M194.9,116.3h7.5v24.7l-2.7-1.8c-0.6-0.4-1.5-0.4-2.1,0l-2.7,1.8L194.9,116.3L194.9,116.3z M134.6,116.3H161v15.1h-26.4V116.3z
	 M115.8,129.5v-11.3c0-1.1,0.8-1.9,1.9-1.9h13.2v15.1h-13.2C116.6,131.4,115.8,130.6,115.8,129.5z"/>
<path class="st1" d="M151.6,120.1c-1,0-1.9,0.8-1.9,1.9v3.8c0,1,0.8,1.9,1.9,1.9s1.9-0.8,1.9-1.9V122
	C153.4,120.9,152.6,120.1,151.6,120.1z"/>
<path class="st1" d="M144,120.1c-1,0-1.9,0.8-1.9,1.9v3.8c0,1,0.8,1.9,1.9,1.9s1.9-0.8,1.9-1.9V122
	C145.9,120.9,145.1,120.1,144,120.1z"/>
<rect x="-0.5" y="-0.5" class="st12" width="1367" height="451"/>
</svg>
