<svg xmlns="http://www.w3.org/2000/svg" width="1920" height="1080"><path d="M23,-229L483,-196L557,-199Z" fill="#e8e8e8" stroke="#e8e8e8" stroke-width="1.51"/><path d="M243,1293L127,1288L735,1362Z" fill="#6a6a6a" stroke="#6a6a6a" stroke-width="1.51"/><path d="M557,-199L1078,-191L1302,-236Z" fill="#c5c5c5" stroke="#c5c5c5" stroke-width="1.51"/><path d="M23,-229L557,-199L1302,-236Z" fill="#dcdcdc" stroke="#dcdcdc" stroke-width="1.51"/><path d="M1091,1268L735,1362L1492,1282Z" fill="#464646" stroke="#464646" stroke-width="1.51"/><path d="M1461,-197L1589,-177L1914,-174Z" fill="#9a9a9a" stroke="#9a9a9a" stroke-width="1.51"/><path d="M1302,-236L1461,-197L1914,-174Z" fill="#a3a3a3" stroke="#a3a3a3" stroke-width="1.51"/><path d="M1589,-177L1707,-153L1914,-174Z" fill="#929292" stroke="#929292" stroke-width="1.51"/><path d="M1492,1282L735,1362L2065,1310Z" fill="#363636" stroke="#363636" stroke-width="1.51"/><path d="M1726,1242L1492,1282L2065,1310Z" fill="#252525" stroke="#252525" stroke-width="1.51"/><path d="M2073,583L2011,636L2081,770Z" fill="#474747" stroke="#474747" stroke-width="1.51"/><path d="M1930,1217L2065,1310L2095,1059Z" fill="#1b1b1b" stroke="#1b1b1b" stroke-width="1.51"/><path d="M2081,770L2054,993L2095,1059Z" fill="#323232" stroke="#323232" stroke-width="1.51"/><path d="M1961,125L1993,277L2126,71Z" fill="#6f6f6f" stroke="#6f6f6f" stroke-width="1.51"/><path d="M2126,71L1993,277L2135,288Z" fill="#686868" stroke="#686868" stroke-width="1.51"/><path d="M2135,288L1993,277L2144,524Z" fill="#5e5e5e" stroke="#5e5e5e" stroke-width="1.51"/><path d="M2073,583L2081,770L2144,524Z" fill="#484848" stroke="#484848" stroke-width="1.51"/><path d="M2081,770L2095,1059L2144,524Z" fill="#3c3c3c" stroke="#3c3c3c" stroke-width="1.51"/><path d="M1302,-236L1914,-174L2183,-205Z" fill="#8e8e8e" stroke="#8e8e8e" stroke-width="1.51"/><path d="M1914,-174L2056,-79L2183,-205Z" fill="#7b7b7b" stroke="#7b7b7b" stroke-width="1.51"/><path d="M2056,-79L2126,71L2183,-205Z" fill="#757575" stroke="#757575" stroke-width="1.51"/><path d="M2126,71L2135,288L2183,-205Z" fill="#6d6d6d" stroke="#6d6d6d" stroke-width="1.51"/><path d="M2135,288L2144,524L2183,-205Z" fill="#656565" stroke="#656565" stroke-width="1.51"/><path d="M1220,1253L1091,1268L1492,1282Z" fill="#414141" stroke="#414141" stroke-width="1.51"/><path d="M2056,-79L2026,-69L2126,71Z" fill="#757575" stroke="#757575" stroke-width="1.51"/><path d="M1869,398L2073,583L2144,524Z" fill="#565656" stroke="#565656" stroke-width="1.51"/><path d="M1993,277L1869,398L2144,524Z" fill="#606060" stroke="#606060" stroke-width="1.51"/><path d="M1919,1104L1930,1217L2095,1059Z" fill="#242424" stroke="#242424" stroke-width="1.51"/><path d="M1912,758L2054,993L2081,770Z" fill="#3d3d3d" stroke="#3d3d3d" stroke-width="1.51"/><path d="M2026,-69L1961,125L2126,71Z" fill="#747474" stroke="#747474" stroke-width="1.51"/><path d="M1912,758L1949,1025L2054,993Z" fill="#383838" stroke="#383838" stroke-width="1.51"/><path d="M1914,-174L2026,-69L2056,-79Z" fill="#7d7d7d" stroke="#7d7d7d" stroke-width="1.51"/><path d="M1930,1217L1726,1242L2065,1310Z" fill="#1d1d1d" stroke="#1d1d1d" stroke-width="1.51"/><path d="M2054,993L1949,1025L2095,1059Z" fill="#2b2b2b" stroke="#2b2b2b" stroke-width="1.51"/><path d="M1949,1025L1919,1104L2095,1059Z" fill="#2a2a2a" stroke="#2a2a2a" stroke-width="1.51"/><path d="M1869,398L2011,636L2073,583Z" fill="#555555" stroke="#555555" stroke-width="1.51"/><path d="M2011,636L1912,758L2081,770Z" fill="#464646" stroke="#464646" stroke-width="1.51"/><path d="M1912,758L1847,796L1949,1025Z" fill="#414141" stroke="#414141" stroke-width="1.51"/><path d="M1645,1238L1492,1282L1726,1242Z" fill="#303030" stroke="#303030" stroke-width="1.51"/><path d="M1756,-16L1799,104L1961,125Z" fill="#808080" stroke="#808080" stroke-width="1.51"/><path d="M1869,398L1784,444L2011,636Z" fill="#5e5e5e" stroke="#5e5e5e" stroke-width="1.51"/><path d="M1756,-16L1961,125L2026,-69Z" fill="#7d7d7d" stroke="#7d7d7d" stroke-width="1.51"/><path d="M1914,-174L1756,-16L2026,-69Z" fill="#838383" stroke="#838383" stroke-width="1.51"/><path d="M1712,542L1912,758L2011,636Z" fill="#535353" stroke="#535353" stroke-width="1.51"/><path d="M1784,444L1712,542L2011,636Z" fill="#5e5e5e" stroke="#5e5e5e" stroke-width="1.51"/><path d="M1799,104L1744,363L1869,398Z" fill="#767676" stroke="#767676" stroke-width="1.51"/><path d="M1961,125L1799,104L1993,277Z" fill="#747474" stroke="#747474" stroke-width="1.51"/><path d="M1799,104L1869,398L1993,277Z" fill="#717171" stroke="#717171" stroke-width="1.51"/><path d="M1847,796L1711,964L1949,1025Z" fill="#404040" stroke="#404040" stroke-width="1.51"/><path d="M1712,542L1847,796L1912,758Z" fill="#535353" stroke="#535353" stroke-width="1.51"/><path d="M1711,964L1919,1104L1949,1025Z" fill="#343434" stroke="#343434" stroke-width="1.51"/><path d="M1707,-153L1756,-16L1914,-174Z" fill="#8c8c8c" stroke="#8c8c8c" stroke-width="1.51"/><path d="M1711,964L1764,1146L1919,1104Z" fill="#343434" stroke="#343434" stroke-width="1.51"/><path d="M1919,1104L1764,1146L1930,1217Z" fill="#262626" stroke="#262626" stroke-width="1.51"/><path d="M1764,1146L1726,1242L1930,1217Z" fill="#272727" stroke="#272727" stroke-width="1.51"/><path d="M1712,542L1660,803L1847,796Z" fill="#585858" stroke="#585858" stroke-width="1.51"/><path d="M1744,363L1784,444L1869,398Z" fill="#6d6d6d" stroke="#6d6d6d" stroke-width="1.51"/><path d="M1574,212L1744,363L1799,104Z" fill="#818181" stroke="#818181" stroke-width="1.51"/><path d="M1660,803L1711,964L1847,796Z" fill="#4d4d4d" stroke="#4d4d4d" stroke-width="1.51"/><path d="M1660,803L1644,923L1711,964Z" fill="#4f4f4f" stroke="#4f4f4f" stroke-width="1.51"/><path d="M1616,563L1660,803L1712,542Z" fill="#656565" stroke="#656565" stroke-width="1.51"/><path d="M1711,964L1639,1102L1764,1146Z" fill="#3b3b3b" stroke="#3b3b3b" stroke-width="1.51"/><path d="M1697,67L1574,212L1799,104Z" fill="#898989" stroke="#898989" stroke-width="1.51"/><path d="M1756,-16L1697,67L1799,104Z" fill="#888888" stroke="#888888" stroke-width="1.51"/><path d="M1744,363L1666,511L1784,444Z" fill="#707070" stroke="#707070" stroke-width="1.51"/><path d="M1666,511L1712,542L1784,444Z" fill="#6c6c6c" stroke="#6c6c6c" stroke-width="1.51"/><path d="M1707,-153L1603,-3L1756,-16Z" fill="#939393" stroke="#939393" stroke-width="1.51"/><path d="M1645,1238L1726,1242L1764,1146Z" fill="#2e2e2e" stroke="#2e2e2e" stroke-width="1.51"/><path d="M1639,1102L1645,1238L1764,1146Z" fill="#333333" stroke="#333333" stroke-width="1.51"/><path d="M1603,-3L1697,67L1756,-16Z" fill="#8f8f8f" stroke="#8f8f8f" stroke-width="1.51"/><path d="M1447,288L1666,511L1744,363Z" fill="#7e7e7e" stroke="#7e7e7e" stroke-width="1.51"/><path d="M1574,212L1447,288L1744,363Z" fill="#888888" stroke="#888888" stroke-width="1.51"/><path d="M1589,-177L1603,-3L1707,-153Z" fill="#9a9a9a" stroke="#9a9a9a" stroke-width="1.51"/><path d="M1447,288L1523,538L1666,511Z" fill="#7d7d7d" stroke="#7d7d7d" stroke-width="1.51"/><path d="M1644,923L1639,1102L1711,964Z" fill="#464646" stroke="#464646" stroke-width="1.51"/><path d="M1666,511L1616,563L1712,542Z" fill="#6c6c6c" stroke="#6c6c6c" stroke-width="1.51"/><path d="M1616,563L1510,829L1660,803Z" fill="#626262" stroke="#626262" stroke-width="1.51"/><path d="M1603,-3L1574,212L1697,67Z" fill="#919191" stroke="#919191" stroke-width="1.51"/><path d="M1523,538L1510,829L1616,563Z" fill="#6c6c6c" stroke="#6c6c6c" stroke-width="1.51"/><path d="M1449,1050L1639,1102L1644,923Z" fill="#4a4a4a" stroke="#4a4a4a" stroke-width="1.51"/><path d="M1510,829L1644,923L1660,803Z" fill="#585858" stroke="#585858" stroke-width="1.51"/><path d="M1523,538L1616,563L1666,511Z" fill="#717171" stroke="#717171" stroke-width="1.51"/><path d="M1639,1102L1492,1282L1645,1238Z" fill="#363636" stroke="#363636" stroke-width="1.51"/><path d="M1388,602L1363,659L1510,829Z" fill="#6f6f6f" stroke="#6f6f6f" stroke-width="1.51"/><path d="M1388,602L1510,829L1523,538Z" fill="#6f6f6f" stroke="#6f6f6f" stroke-width="1.51"/><path d="M1394,149L1574,212L1603,-3Z" fill="#969696" stroke="#969696" stroke-width="1.51"/><path d="M1449,1050L1492,1282L1639,1102Z" fill="#3f3f3f" stroke="#3f3f3f" stroke-width="1.51"/><path d="M1510,829L1449,1050L1644,923Z" fill="#565656" stroke="#565656" stroke-width="1.51"/><path d="M1589,-177L1433,-46L1603,-3Z" fill="#a0a0a0" stroke="#a0a0a0" stroke-width="1.51"/><path d="M1433,-46L1394,149L1603,-3Z" fill="#9d9d9d" stroke="#9d9d9d" stroke-width="1.51"/><path d="M1385,912L1449,1050L1510,829Z" fill="#5a5a5a" stroke="#5a5a5a" stroke-width="1.51"/><path d="M1461,-197L1433,-46L1589,-177Z" fill="#a4a4a4" stroke="#a4a4a4" stroke-width="1.51"/><path d="M1447,288L1328,456L1523,538Z" fill="#858585" stroke="#858585" stroke-width="1.51"/><path d="M1394,149L1447,288L1574,212Z" fill="#939393" stroke="#939393" stroke-width="1.51"/><path d="M557,-199L753,-151L1078,-191Z" fill="#d0d0d0" stroke="#d0d0d0" stroke-width="1.51"/><path d="M1449,1050L1235,1167L1492,1282Z" fill="#444444" stroke="#444444" stroke-width="1.51"/><path d="M1328,456L1388,602L1523,538Z" fill="#7d7d7d" stroke="#7d7d7d" stroke-width="1.51"/><path d="M1363,659L1385,912L1510,829Z" fill="#666666" stroke="#666666" stroke-width="1.51"/><path d="M1385,912L1351,954L1449,1050Z" fill="#595959" stroke="#595959" stroke-width="1.51"/><path d="M1235,1167L1220,1253L1492,1282Z" fill="#424242" stroke="#424242" stroke-width="1.51"/><path d="M1363,659L1229,734L1385,912Z" fill="#6e6e6e" stroke="#6e6e6e" stroke-width="1.51"/><path d="M1220,64L1394,149L1433,-46Z" fill="#a3a3a3" stroke="#a3a3a3" stroke-width="1.51"/><path d="M1309,-101L1433,-46L1461,-197Z" fill="#a9a9a9" stroke="#a9a9a9" stroke-width="1.51"/><path d="M1302,-236L1309,-101L1461,-197Z" fill="#adadad" stroke="#adadad" stroke-width="1.51"/><path d="M1309,-101L1220,64L1433,-46Z" fill="#a9a9a9" stroke="#a9a9a9" stroke-width="1.51"/><path d="M1394,149L1235,313L1447,288Z" fill="#979797" stroke="#979797" stroke-width="1.51"/><path d="M1235,313L1328,456L1447,288Z" fill="#929292" stroke="#929292" stroke-width="1.51"/><path d="M1351,954L1235,1167L1449,1050Z" fill="#525252" stroke="#525252" stroke-width="1.51"/><path d="M1160,1067L1235,1167L1351,954Z" fill="#565656" stroke="#565656" stroke-width="1.51"/><path d="M1229,734L1351,954L1385,912Z" fill="#666666" stroke="#666666" stroke-width="1.51"/><path d="M1328,456L1160,600L1388,602Z" fill="#828282" stroke="#828282" stroke-width="1.51"/><path d="M1220,64L1235,313L1394,149Z" fill="#a1a1a1" stroke="#a1a1a1" stroke-width="1.51"/><path d="M1160,600L1363,659L1388,602Z" fill="#7b7b7b" stroke="#7b7b7b" stroke-width="1.51"/><path d="M1229,734L1077,879L1351,954Z" fill="#6d6d6d" stroke="#6d6d6d" stroke-width="1.51"/><path d="M1160,600L1229,734L1363,659Z" fill="#7b7b7b" stroke="#7b7b7b" stroke-width="1.51"/><path d="M1220,64L1110,211L1235,313Z" fill="#a5a5a5" stroke="#a5a5a5" stroke-width="1.51"/><path d="M1077,879L1160,1067L1351,954Z" fill="#656565" stroke="#656565" stroke-width="1.51"/><path d="M1235,313L1070,472L1328,456Z" fill="#939393" stroke="#939393" stroke-width="1.51"/><path d="M1070,472L1160,600L1328,456Z" fill="#8c8c8c" stroke="#8c8c8c" stroke-width="1.51"/><path d="M1078,-191L1115,-79L1302,-236Z" fill="#b9b9b9" stroke="#b9b9b9" stroke-width="1.51"/><path d="M1302,-236L1115,-79L1309,-101Z" fill="#b3b3b3" stroke="#b3b3b3" stroke-width="1.51"/><path d="M1115,-79L1220,64L1309,-101Z" fill="#b0b0b0" stroke="#b0b0b0" stroke-width="1.51"/><path d="M884,1251L735,1362L1091,1268Z" fill="#525252" stroke="#525252" stroke-width="1.51"/><path d="M1115,-79L1111,51L1220,64Z" fill="#b2b2b2" stroke="#b2b2b2" stroke-width="1.51"/><path d="M1111,51L1110,211L1220,64Z" fill="#adadad" stroke="#adadad" stroke-width="1.51"/><path d="M1055,801L1077,879L1229,734Z" fill="#767676" stroke="#767676" stroke-width="1.51"/><path d="M1110,211L1070,472L1235,313Z" fill="#9f9f9f" stroke="#9f9f9f" stroke-width="1.51"/><path d="M1091,1268L1220,1253L1235,1167Z" fill="#494949" stroke="#494949" stroke-width="1.51"/><path d="M1160,1067L1091,1268L1235,1167Z" fill="#4f4f4f" stroke="#4f4f4f" stroke-width="1.51"/><path d="M1032,628L1055,801L1160,600Z" fill="#838383" stroke="#838383" stroke-width="1.51"/><path d="M1160,600L1055,801L1229,734Z" fill="#7d7d7d" stroke="#7d7d7d" stroke-width="1.51"/><path d="M753,-151L947,-123L1078,-191Z" fill="#c7c7c7" stroke="#c7c7c7" stroke-width="1.51"/><path d="M941,328L1070,472L1110,211Z" fill="#a4a4a4" stroke="#a4a4a4" stroke-width="1.51"/><path d="M1070,472L1032,628L1160,600Z" fill="#8c8c8c" stroke="#8c8c8c" stroke-width="1.51"/><path d="M1012,1092L1091,1268L1160,1067Z" fill="#555555" stroke="#555555" stroke-width="1.51"/><path d="M1077,879L1012,1092L1160,1067Z" fill="#656565" stroke="#656565" stroke-width="1.51"/><path d="M941,328L967,449L1070,472Z" fill="#9f9f9f" stroke="#9f9f9f" stroke-width="1.51"/><path d="M950,890L1012,1092L1077,879Z" fill="#707070" stroke="#707070" stroke-width="1.51"/><path d="M987,-75L986,70L1111,51Z" fill="#b9b9b9" stroke="#b9b9b9" stroke-width="1.51"/><path d="M986,70L1110,211L1111,51Z" fill="#b1b1b1" stroke="#b1b1b1" stroke-width="1.51"/><path d="M987,-75L1111,51L1115,-79Z" fill="#b9b9b9" stroke="#b9b9b9" stroke-width="1.51"/><path d="M1078,-191L987,-75L1115,-79Z" fill="#bebebe" stroke="#bebebe" stroke-width="1.51"/><path d="M986,70L941,328L1110,211Z" fill="#afafaf" stroke="#afafaf" stroke-width="1.51"/><path d="M470,1279L243,1293L735,1362Z" fill="#666666" stroke="#666666" stroke-width="1.51"/><path d="M967,449L1032,628L1070,472Z" fill="#949494" stroke="#949494" stroke-width="1.51"/><path d="M947,-123L987,-75L1078,-191Z" fill="#c1c1c1" stroke="#c1c1c1" stroke-width="1.51"/><path d="M1012,1092L884,1251L1091,1268Z" fill="#545454" stroke="#545454" stroke-width="1.51"/><path d="M836,260L941,328L986,70Z" fill="#b3b3b3" stroke="#b3b3b3" stroke-width="1.51"/><path d="M1055,801L950,890L1077,879Z" fill="#777777" stroke="#777777" stroke-width="1.51"/><path d="M1032,628L911,853L1055,801Z" fill="#818181" stroke="#818181" stroke-width="1.51"/><path d="M864,1133L884,1251L1012,1092Z" fill="#5d5d5d" stroke="#5d5d5d" stroke-width="1.51"/><path d="M950,890L855,997L1012,1092Z" fill="#707070" stroke="#707070" stroke-width="1.51"/><path d="M911,853L950,890L1055,801Z" fill="#7b7b7b" stroke="#7b7b7b" stroke-width="1.51"/><path d="M967,449L716,699L1032,628Z" fill="#959595" stroke="#959595" stroke-width="1.51"/><path d="M716,699L911,853L1032,628Z" fill="#8a8a8a" stroke="#8a8a8a" stroke-width="1.51"/><path d="M739,443L716,699L967,449Z" fill="#a0a0a0" stroke="#a0a0a0" stroke-width="1.51"/><path d="M800,-59L986,70L987,-75Z" fill="#c1c1c1" stroke="#c1c1c1" stroke-width="1.51"/><path d="M855,997L864,1133L1012,1092Z" fill="#676767" stroke="#676767" stroke-width="1.51"/><path d="M716,699L721,769L911,853Z" fill="#8d8d8d" stroke="#8d8d8d" stroke-width="1.51"/><path d="M750,86L836,260L986,70Z" fill="#bdbdbd" stroke="#bdbdbd" stroke-width="1.51"/><path d="M800,-59L750,86L986,70Z" fill="#c4c4c4" stroke="#c4c4c4" stroke-width="1.51"/><path d="M947,-123L800,-59L987,-75Z" fill="#c6c6c6" stroke="#c6c6c6" stroke-width="1.51"/><path d="M941,328L739,443L967,449Z" fill="#a7a7a7" stroke="#a7a7a7" stroke-width="1.51"/><path d="M836,260L739,443L941,328Z" fill="#b0b0b0" stroke="#b0b0b0" stroke-width="1.51"/><path d="M911,853L855,997L950,890Z" fill="#7a7a7a" stroke="#7a7a7a" stroke-width="1.51"/><path d="M753,-151L800,-59L947,-123Z" fill="#cbcbcb" stroke="#cbcbcb" stroke-width="1.51"/><path d="M721,769L855,997L911,853Z" fill="#818181" stroke="#818181" stroke-width="1.51"/><path d="M680,343L739,443L836,260Z" fill="#b5b5b5" stroke="#b5b5b5" stroke-width="1.51"/><path d="M721,769L622,938L855,997Z" fill="#858585" stroke="#858585" stroke-width="1.51"/><path d="M864,1133L684,1216L884,1251Z" fill="#5f5f5f" stroke="#5f5f5f" stroke-width="1.51"/><path d="M684,1216L735,1362L884,1251Z" fill="#5b5b5b" stroke="#5b5b5b" stroke-width="1.51"/><path d="M631,513L716,699L739,443Z" fill="#a5a5a5" stroke="#a5a5a5" stroke-width="1.51"/><path d="M564,1073L684,1216L855,997Z" fill="#717171" stroke="#717171" stroke-width="1.51"/><path d="M622,938L564,1073L855,997Z" fill="#7e7e7e" stroke="#7e7e7e" stroke-width="1.51"/><path d="M855,997L684,1216L864,1133Z" fill="#696969" stroke="#696969" stroke-width="1.51"/><path d="M750,86L680,343L836,260Z" fill="#bdbdbd" stroke="#bdbdbd" stroke-width="1.51"/><path d="M606,96L541,224L680,343Z" fill="#c6c6c6" stroke="#c6c6c6" stroke-width="1.51"/><path d="M606,96L680,343L750,86Z" fill="#c5c5c5" stroke="#c5c5c5" stroke-width="1.51"/><path d="M753,-151L652,-25L800,-59Z" fill="#d1d1d1" stroke="#d1d1d1" stroke-width="1.51"/><path d="M652,-25L750,86L800,-59Z" fill="#cccccc" stroke="#cccccc" stroke-width="1.51"/><path d="M631,513L562,663L716,699Z" fill="#a2a2a2" stroke="#a2a2a2" stroke-width="1.51"/><path d="M560,825L622,938L721,769Z" fill="#8f8f8f" stroke="#8f8f8f" stroke-width="1.51"/><path d="M652,-25L606,96L750,86Z" fill="#cecece" stroke="#cecece" stroke-width="1.51"/><path d="M557,-199L652,-25L753,-151Z" fill="#d8d8d8" stroke="#d8d8d8" stroke-width="1.51"/><path d="M23,-229L245,-151L483,-196Z" fill="#ececec" stroke="#ececec" stroke-width="1.51"/><path d="M684,1216L470,1279L735,1362Z" fill="#626262" stroke="#626262" stroke-width="1.51"/><path d="M680,343L631,513L739,443Z" fill="#b1b1b1" stroke="#b1b1b1" stroke-width="1.51"/><path d="M716,699L562,663L721,769Z" fill="#999999" stroke="#999999" stroke-width="1.51"/><path d="M562,663L560,825L721,769Z" fill="#989898" stroke="#989898" stroke-width="1.51"/><path d="M533,502L631,513L680,343Z" fill="#b3b3b3" stroke="#b3b3b3" stroke-width="1.51"/><path d="M564,1073L470,1279L684,1216Z" fill="#6d6d6d" stroke="#6d6d6d" stroke-width="1.51"/><path d="M541,224L533,502L680,343Z" fill="#bebebe" stroke="#bebebe" stroke-width="1.51"/><path d="M500,712L560,825L562,663Z" fill="#9d9d9d" stroke="#9d9d9d" stroke-width="1.51"/><path d="M534,960L564,1073L622,938Z" fill="#848484" stroke="#848484" stroke-width="1.51"/><path d="M533,502L562,663L631,513Z" fill="#ababab" stroke="#ababab" stroke-width="1.51"/><path d="M427,-19L606,96L652,-25Z" fill="#d5d5d5" stroke="#d5d5d5" stroke-width="1.51"/><path d="M557,-199L427,-19L652,-25Z" fill="#dbdbdb" stroke="#dbdbdb" stroke-width="1.51"/><path d="M483,-196L427,-19L557,-199Z" fill="#e0e0e0" stroke="#e0e0e0" stroke-width="1.51"/><path d="M484,140L541,224L606,96Z" fill="#cecece" stroke="#cecece" stroke-width="1.51"/><path d="M560,825L534,960L622,938Z" fill="#8d8d8d" stroke="#8d8d8d" stroke-width="1.51"/><path d="M329,303L533,502L541,224Z" fill="#c4c4c4" stroke="#c4c4c4" stroke-width="1.51"/><path d="M427,-19L484,140L606,96Z" fill="#d4d4d4" stroke="#d4d4d4" stroke-width="1.51"/><path d="M387,1150L470,1279L564,1073Z" fill="#737373" stroke="#737373" stroke-width="1.51"/><path d="M290,891L534,960L560,825Z" fill="#929292" stroke="#929292" stroke-width="1.51"/><path d="M533,502L384,680L562,663Z" fill="#a9a9a9" stroke="#a9a9a9" stroke-width="1.51"/><path d="M384,680L500,712L562,663Z" fill="#a4a4a4" stroke="#a4a4a4" stroke-width="1.51"/><path d="M534,960L387,1150L564,1073Z" fill="#7f7f7f" stroke="#7f7f7f" stroke-width="1.51"/><path d="M365,728L290,891L560,825Z" fill="#9c9c9c" stroke="#9c9c9c" stroke-width="1.51"/><path d="M329,303L273,403L533,502Z" fill="#c3c3c3" stroke="#c3c3c3" stroke-width="1.51"/><path d="M500,712L365,728L560,825Z" fill="#9e9e9e" stroke="#9e9e9e" stroke-width="1.51"/><path d="M324,1126L387,1150L534,960Z" fill="#808080" stroke="#808080" stroke-width="1.51"/><path d="M484,140L382,179L541,224Z" fill="#cfcfcf" stroke="#cfcfcf" stroke-width="1.51"/><path d="M382,179L329,303L541,224Z" fill="#cecece" stroke="#cecece" stroke-width="1.51"/><path d="M273,403L384,680L533,502Z" fill="#b6b6b6" stroke="#b6b6b6" stroke-width="1.51"/><path d="M290,891L324,1126L534,960Z" fill="#8c8c8c" stroke="#8c8c8c" stroke-width="1.51"/><path d="M273,403L348,683L384,680Z" fill="#b3b3b3" stroke="#b3b3b3" stroke-width="1.51"/><path d="M427,-19L382,179L484,140Z" fill="#d6d6d6" stroke="#d6d6d6" stroke-width="1.51"/><path d="M384,680L365,728L500,712Z" fill="#a5a5a5" stroke="#a5a5a5" stroke-width="1.51"/><path d="M245,-151L246,-102L427,-19Z" fill="#e6e6e6" stroke="#e6e6e6" stroke-width="1.51"/><path d="M245,-151L427,-19L483,-196Z" fill="#e4e4e4" stroke="#e4e4e4" stroke-width="1.51"/><path d="M387,1150L243,1293L470,1279Z" fill="#707070" stroke="#707070" stroke-width="1.51"/><path d="M273,403L217,420L348,683Z" fill="#bdbdbd" stroke="#bdbdbd" stroke-width="1.51"/><path d="M211,166L382,179L427,-19Z" fill="#dadada" stroke="#dadada" stroke-width="1.51"/><path d="M246,-102L211,166L427,-19Z" fill="#e0e0e0" stroke="#e0e0e0" stroke-width="1.51"/><path d="M121,22L211,166L246,-102Z" fill="#e4e4e4" stroke="#e4e4e4" stroke-width="1.51"/><path d="M290,891L188,1004L324,1126Z" fill="#8e8e8e" stroke="#8e8e8e" stroke-width="1.51"/><path d="M217,420L103,610L348,683Z" fill="#b9b9b9" stroke="#b9b9b9" stroke-width="1.51"/><path d="M211,166L329,303L382,179Z" fill="#d4d4d4" stroke="#d4d4d4" stroke-width="1.51"/><path d="M348,683L365,728L384,680Z" fill="#a8a8a8" stroke="#a8a8a8" stroke-width="1.51"/><path d="M324,1126L243,1293L387,1150Z" fill="#767676" stroke="#767676" stroke-width="1.51"/><path d="M348,683L83,800L365,728Z" fill="#a8a8a8" stroke="#a8a8a8" stroke-width="1.51"/><path d="M83,800L290,891L365,728Z" fill="#a2a2a2" stroke="#a2a2a2" stroke-width="1.51"/><path d="M-105,1218L-183,1222L127,1288Z" fill="#7d7d7d" stroke="#7d7d7d" stroke-width="1.51"/><path d="M103,610L83,800L348,683Z" fill="#aeaeae" stroke="#aeaeae" stroke-width="1.51"/><path d="M127,1288L243,1293L324,1126Z" fill="#757575" stroke="#757575" stroke-width="1.51"/><path d="M217,420L273,403L329,303Z" fill="#c9c9c9" stroke="#c9c9c9" stroke-width="1.51"/><path d="M211,166L217,420L329,303Z" fill="#d1d1d1" stroke="#d1d1d1" stroke-width="1.51"/><path d="M188,1004L43,1165L324,1126Z" fill="#868686" stroke="#868686" stroke-width="1.51"/><path d="M43,1165L127,1288L324,1126Z" fill="#7b7b7b" stroke="#7b7b7b" stroke-width="1.51"/><path d="M42,307L53,341L211,166Z" fill="#d8d8d8" stroke="#d8d8d8" stroke-width="1.51"/><path d="M211,166L53,341L217,420Z" fill="#d3d3d3" stroke="#d3d3d3" stroke-width="1.51"/><path d="M83,800L188,1004L290,891Z" fill="#9c9c9c" stroke="#9c9c9c" stroke-width="1.51"/><path d="M23,-229L96,-124L245,-151Z" fill="#efefef" stroke="#efefef" stroke-width="1.51"/><path d="M61,1040L43,1165L188,1004Z" fill="#8c8c8c" stroke="#8c8c8c" stroke-width="1.51"/><path d="M18,465L103,610L217,420Z" fill="#c3c3c3" stroke="#c3c3c3" stroke-width="1.51"/><path d="M245,-151L96,-124L246,-102Z" fill="#ebebeb" stroke="#ebebeb" stroke-width="1.51"/><path d="M96,-124L121,22L246,-102Z" fill="#ebebeb" stroke="#ebebeb" stroke-width="1.51"/><path d="M18,465L44,578L103,610Z" fill="#c0c0c0" stroke="#c0c0c0" stroke-width="1.51"/><path d="M83,800L61,1040L188,1004Z" fill="#9b9b9b" stroke="#9b9b9b" stroke-width="1.51"/><path d="M53,341L18,465L217,420Z" fill="#cdcdcd" stroke="#cdcdcd" stroke-width="1.51"/><path d="M121,22L-27,68L211,166Z" fill="#e4e4e4" stroke="#e4e4e4" stroke-width="1.51"/><path d="M-27,68L42,307L211,166Z" fill="#dfdfdf" stroke="#dfdfdf" stroke-width="1.51"/><path d="M44,578L-100,736L83,800Z" fill="#b4b4b4" stroke="#b4b4b4" stroke-width="1.51"/><path d="M-71,952L61,1040L83,800Z" fill="#9f9f9f" stroke="#9f9f9f" stroke-width="1.51"/><path d="M44,578L83,800L103,610Z" fill="#b5b5b5" stroke="#b5b5b5" stroke-width="1.51"/><path d="M96,-124L-4,-87L121,22Z" fill="#ededed" stroke="#ededed" stroke-width="1.51"/><path d="M43,1165L-105,1218L127,1288Z" fill="#7d7d7d" stroke="#7d7d7d" stroke-width="1.51"/><path d="M-4,-87L-27,68L121,22Z" fill="#ebebeb" stroke="#ebebeb" stroke-width="1.51"/><path d="M-27,68L-127,104L42,307Z" fill="#e4e4e4" stroke="#e4e4e4" stroke-width="1.51"/><path d="M23,-229L-4,-87L96,-124Z" fill="#f2f2f2" stroke="#f2f2f2" stroke-width="1.51"/><path d="M-100,736L-71,952L83,800Z" fill="#a9a9a9" stroke="#a9a9a9" stroke-width="1.51"/><path d="M-127,104L-170,327L42,307Z" fill="#dfdfdf" stroke="#dfdfdf" stroke-width="1.51"/><path d="M-122,1009L-160,1065L43,1165Z" fill="#8f8f8f" stroke="#8f8f8f" stroke-width="1.51"/><path d="M-122,1009L43,1165L61,1040Z" fill="#8f8f8f" stroke="#8f8f8f" stroke-width="1.51"/><path d="M-71,952L-122,1009L61,1040Z" fill="#999999" stroke="#999999" stroke-width="1.51"/><path d="M-160,1065L-105,1218L43,1165Z" fill="#868686" stroke="#868686" stroke-width="1.51"/><path d="M42,307L-170,327L53,341Z" fill="#d8d8d8" stroke="#d8d8d8" stroke-width="1.51"/><path d="M-170,327L18,465L53,341Z" fill="#d4d4d4" stroke="#d4d4d4" stroke-width="1.51"/><path d="M18,465L-156,539L44,578Z" fill="#c5c5c5" stroke="#c5c5c5" stroke-width="1.51"/><path d="M-156,539L-100,736L44,578Z" fill="#bebebe" stroke="#bebebe" stroke-width="1.51"/><path d="M-170,327L-156,539L18,465Z" fill="#cfcfcf" stroke="#cfcfcf" stroke-width="1.51"/><path d="M-160,-201L-4,-87L23,-229Z" fill="#f5f5f5" stroke="#f5f5f5" stroke-width="1.51"/><path d="M-127,104L-27,68L-4,-87Z" fill="#ececec" stroke="#ececec" stroke-width="1.51"/><path d="M-247,-6L-127,104L-4,-87Z" fill="#efefef" stroke="#efefef" stroke-width="1.51"/><path d="M-160,-201L-247,-6L-4,-87Z" fill="#f4f4f4" stroke="#f4f4f4" stroke-width="1.51"/><path d="M-160,1065L-183,1222L-105,1218Z" fill="#868686" stroke="#868686" stroke-width="1.51"/><path d="M-156,539L-244,662L-100,736Z" fill="#bdbdbd" stroke="#bdbdbd" stroke-width="1.51"/><path d="M-100,736L-236,745L-71,952Z" fill="#adadad" stroke="#adadad" stroke-width="1.51"/><path d="M-236,745L-122,1009L-71,952Z" fill="#a5a5a5" stroke="#a5a5a5" stroke-width="1.51"/><path d="M-244,662L-236,745L-100,736Z" fill="#b7b7b7" stroke="#b7b7b7" stroke-width="1.51"/><path d="M-236,745L-160,1065L-122,1009Z" fill="#a3a3a3" stroke="#a3a3a3" stroke-width="1.51"/><path d="M-247,-6L-170,327L-127,104Z" fill="#e8e8e8" stroke="#e8e8e8" stroke-width="1.51"/><path d="M-170,327L-244,662L-156,539Z" fill="#cacaca" stroke="#cacaca" stroke-width="1.51"/><path d="M-236,745L-183,1222L-160,1065Z" fill="#9b9b9b" stroke="#9b9b9b" stroke-width="1.51"/><path d="M-247,-6L-244,662L-170,327Z" fill="#dddddd" stroke="#dddddd" stroke-width="1.51"/></svg>